<?xml version="1.0" standalone="no"?>
<!DOCTYPE svg PUBLIC "-//W3C//DTD SVG 20010904//EN"
 "http://www.w3.org/TR/2001/REC-SVG-20010904/DTD/svg10.dtd">
<svg version="1.0" xmlns="http://www.w3.org/2000/svg"
 width="412.000000pt" height="412.000000pt" viewBox="0 0 412.000000 412.000000"
 preserveAspectRatio="xMidYMid meet">
<metadata>
Created by potrace 1.14, written by Peter Selinger 2001-2017
</metadata>
<g transform="translate(0.000000,412.000000) scale(0.100000,-0.100000)"
fill="#000000" stroke="none">
<path d="M1610 3967 c-50 -10 -77 -27 -42 -27 42 0 22 -17 -35 -29 -32 -7 -68
-19 -80 -27 -12 -8 -32 -14 -44 -14 -24 0 -126 -59 -133 -77 -3 -7 1 -13 9
-13 20 0 19 -13 -5 -43 -11 -14 -18 -32 -15 -39 4 -9 -18 -40 -52 -78 -32 -34
-63 -70 -68 -79 -19 -29 -35 -72 -25 -66 5 3 10 1 10 -4 0 -6 -4 -11 -9 -11
-5 0 -21 -24 -36 -54 -31 -62 -61 -97 -116 -133 -30 -20 -39 -32 -39 -54 0
-19 5 -29 15 -29 23 0 18 -24 -11 -51 -14 -13 -30 -32 -35 -42 -9 -15 -7 -17
15 -11 19 5 26 2 26 -9 0 -8 5 -17 12 -19 13 -5 15 -49 5 -90 -6 -21 -4 -26 6
-22 10 4 16 -7 20 -37 3 -23 12 -46 19 -50 9 -5 14 -33 16 -89 1 -45 7 -90 12
-100 6 -10 10 -29 10 -42 0 -13 9 -40 20 -61 11 -21 23 -58 27 -82 3 -24 21
-68 39 -97 47 -75 59 -101 89 -200 14 -49 30 -88 35 -88 13 0 13 1 -7 57 -12
34 -17 78 -17 153 2 424 6 610 15 642 10 38 103 133 120 122 5 -3 12 2 15 10
3 9 10 16 15 16 4 0 28 14 52 30 25 17 50 30 56 30 7 0 24 9 39 20 15 11 37
21 49 23 11 2 27 8 35 14 18 14 79 25 158 29 36 1 70 3 76 3 6 1 22 11 36 24
35 31 64 47 87 47 11 0 22 4 25 9 4 6 134 53 156 56 3 0 10 3 16 7 6 4 14 5
17 2 3 -4 25 -8 48 -9 65 -5 115 -32 222 -117 53 -43 102 -78 108 -78 6 0 9
-7 5 -15 -3 -8 0 -15 7 -15 7 0 17 -10 22 -22 7 -16 20 -24 43 -26 34 -3 42
-16 17 -26 -14 -5 -13 -11 7 -46 13 -22 28 -40 33 -40 6 0 18 -18 27 -40 19
-47 47 -53 71 -16 16 23 19 96 5 96 -5 0 -8 7 -8 15 0 8 7 15 15 15 16 0 17
11 5 50 l-7 25 -10 -24 -10 -25 -6 25 c-4 13 -2 28 3 33 16 16 12 44 -9 65
-27 27 -91 121 -91 133 0 6 7 8 15 4 8 -3 15 -1 15 4 0 6 -9 10 -19 10 -11 0
-28 11 -39 25 -11 13 -22 21 -26 18 -3 -3 -6 -2 -7 3 0 5 -2 22 -3 38 -1 16
-7 31 -13 33 -6 2 -25 17 -42 34 -17 16 -35 29 -40 29 -5 0 -13 10 -17 23 -10
31 -55 69 -76 63 -13 -3 -23 8 -38 41 -25 58 -61 99 -81 95 -9 -2 -19 5 -21
16 -3 10 -22 26 -42 36 -20 9 -36 21 -36 26 0 10 -86 73 -115 84 -11 4 -98 10
-193 12 -96 3 -192 11 -215 18 -29 8 -56 9 -87 3z m1042 -656 c9 -11 14 -22
11 -24 -2 -3 4 -8 15 -11 19 -6 69 -63 90 -103 9 -15 9 -22 1 -25 -8 -3 -6
-16 5 -42 9 -22 13 -48 10 -59 -6 -20 -7 -20 -20 -2 -8 10 -14 26 -14 35 0 9
-9 27 -20 40 -11 13 -20 29 -20 36 0 7 -15 32 -33 56 -19 24 -32 49 -29 56 2
7 0 12 -6 12 -5 0 -14 11 -20 25 -14 31 5 35 30 6z"/>
<path d="M2550 3596 c0 -2 7 -7 16 -10 8 -3 12 -2 9 4 -6 10 -25 14 -25 6z"/>
<path d="M2149 2864 c-7 -8 -21 -13 -31 -11 -11 3 -22 -2 -29 -14 -5 -11 -14
-17 -19 -14 -4 3 -15 2 -24 -1 -12 -5 -13 -10 -4 -30 12 -27 9 -26 93 -28 33
-1 65 -5 71 -9 11 -6 115 11 202 34 40 11 42 13 26 30 -10 11 -37 20 -73 24
-31 3 -74 10 -96 15 -88 20 -102 20 -116 4z"/>
<path d="M1585 2782 c-11 -2 -34 -10 -52 -18 -17 -8 -35 -14 -41 -14 -5 0 -20
-8 -33 -18 -13 -11 -37 -22 -52 -26 -16 -4 -47 -24 -70 -46 -68 -62 -58 -122
14 -86 18 9 45 16 61 16 l29 0 -31 -44 c-16 -25 -30 -49 -30 -55 0 -5 -10 -17
-22 -25 -19 -14 -20 -16 -4 -22 9 -4 29 -1 43 5 33 15 200 4 184 -12 -20 -20
-11 -28 24 -21 106 20 149 52 159 118 6 41 4 52 -17 79 -24 33 -26 57 -3 57
21 0 7 45 -21 72 -25 24 -103 46 -138 40z m-69 -300 c-3 -2 -14 -1 -26 3 -17
6 -19 9 -9 22 11 13 14 13 26 -3 7 -10 11 -19 9 -22z"/>
<path d="M2755 2690 c4 -76 3 -70 13 -70 8 0 8 59 -1 80 -3 8 -8 24 -11 35 -2
11 -3 -9 -1 -45z"/>
<path d="M2140 2708 c-43 -26 -56 -40 -61 -66 -6 -27 -2 -38 18 -58 18 -18 20
-24 8 -24 -8 0 -15 -4 -15 -8 0 -8 15 -17 91 -52 8 -4 33 -2 55 6 21 8 47 14
57 14 14 0 17 5 12 20 -4 14 -2 20 8 20 8 0 27 7 43 14 15 8 31 13 36 10 4 -3
8 -1 8 4 0 5 22 12 50 16 27 4 52 11 55 16 6 10 -56 60 -75 60 -7 0 -38 12
-68 27 -34 16 -77 28 -111 31 -49 3 -63 -1 -111 -30z m265 -78 c0 -7 -6 -15
-12 -17 -8 -3 -13 4 -13 17 0 13 5 20 13 18 6 -3 12 -11 12 -18z"/>
<path d="M2190 2266 c0 -28 52 -83 88 -92 12 -4 22 -13 22 -20 0 -8 7 -17 15
-20 8 -4 15 -12 15 -20 0 -8 6 -14 13 -15 6 0 2 -4 -10 -9 -13 -5 -23 -14 -23
-20 0 -6 4 -9 10 -5 13 8 48 -29 55 -57 7 -26 -16 -44 -80 -63 -27 -8 -40 -18
-41 -31 -2 -48 -4 -53 -19 -48 -8 4 -18 17 -21 30 -10 39 -23 27 -17 -16 6
-39 5 -40 -26 -40 -18 0 -39 -7 -47 -15 -9 -8 -24 -16 -35 -16 -10 -1 -25 -2
-31 -3 -7 -1 -18 10 -25 24 l-11 25 -1 -26 c-1 -19 -8 -28 -23 -33 -35 -9 -68
-7 -68 4 0 6 -10 8 -24 4 -17 -4 -27 0 -34 13 -11 17 -11 17 -24 0 -12 -16
-16 -16 -25 -5 -6 7 -13 22 -15 33 -2 16 3 20 24 20 15 0 33 6 39 13 10 10 -5
12 -76 12 -103 0 -123 7 -105 37 11 17 35 28 105 49 68 21 137 11 119 -17 -4
-8 -9 -20 -10 -29 -10 -59 -13 -55 56 -61 56 -4 70 -2 102 18 35 22 58 50 58
72 0 16 -43 18 -67 3 -13 -8 -30 -11 -40 -8 -13 5 -6 12 28 30 24 13 60 27 79
30 46 9 140 46 140 56 0 30 -156 34 -225 6 -21 -9 -45 -16 -55 -16 -31 0 -85
22 -111 46 -34 32 -61 32 -53 0 4 -17 -1 -31 -15 -45 -12 -12 -21 -25 -21 -30
0 -9 -110 -34 -118 -26 -8 8 20 35 30 29 5 -3 8 3 6 13 -3 19 40 93 55 93 12
0 8 55 -5 68 -20 20 -43 14 -81 -23 -20 -19 -33 -35 -30 -35 4 0 -8 -13 -25
-28 -18 -16 -32 -35 -32 -43 0 -8 -11 -30 -24 -50 -37 -54 -41 -167 -6 -176
11 -3 20 -10 20 -15 0 -5 7 -16 15 -25 8 -8 12 -19 9 -24 -8 -13 4 -59 15 -59
5 0 18 15 28 33 15 25 17 37 9 50 -9 14 -7 21 8 32 17 13 23 11 60 -19 55 -44
72 -49 235 -63 74 -6 74 -6 52 -25 -13 -10 -19 -18 -15 -18 5 0 -2 -7 -15 -16
-16 -12 -22 -23 -18 -40 2 -13 1 -24 -4 -24 -4 0 -15 -7 -23 -16 -14 -14 -14
-17 0 -39 9 -13 15 -26 15 -29 -3 -21 2 -26 25 -26 15 0 44 -5 66 -12 34 -10
40 -9 52 7 7 10 18 15 24 11 6 -3 14 -1 17 5 4 5 13 8 21 5 29 -11 62 82 34
99 -5 3 -29 10 -52 14 l-43 8 27 11 c18 8 26 16 22 26 -5 13 -9 13 -30 -1 -22
-14 -24 -14 -24 1 0 9 -6 16 -14 16 -25 0 -37 25 -22 45 11 15 17 17 28 7 12
-9 19 -8 36 8 12 11 28 20 37 20 9 0 42 14 75 30 33 16 65 30 71 30 7 0 34 20
60 45 26 25 52 45 58 45 11 0 26 -31 30 -62 1 -7 13 14 27 47 13 33 22 66 19
74 -4 11 -3 12 10 1 8 -7 13 -16 10 -20 -3 -5 0 -12 6 -16 20 -12 1 90 -26
145 -21 41 -33 52 -71 67 -25 9 -49 25 -54 35 -12 21 -82 55 -132 63 -36 6
-38 5 -38 -18z m265 -206 c3 -5 -1 -10 -9 -10 -8 0 -18 5 -21 10 -3 6 1 10 9
10 8 0 18 -4 21 -10z m-55 -20 c0 -5 -2 -10 -4 -10 -3 0 -8 5 -11 10 -3 6 -1
10 4 10 6 0 11 -4 11 -10z m-803 -95 c-7 -14 -16 -25 -20 -25 -8 0 -2 14 16
38 15 19 16 14 4 -13z m383 21 c0 -11 -19 -15 -25 -6 -3 5 1 10 9 10 9 0 16
-2 16 -4z m50 -426 c0 -5 -2 -10 -4 -10 -3 0 -8 5 -11 10 -3 6 -1 10 4 10 6 0
11 -4 11 -10z"/>
<path d="M2100 2170 c-8 -5 -11 -12 -8 -16 10 -9 38 3 38 16 0 12 -10 13 -30
0z"/>
<path d="M1870 1925 c0 -8 5 -15 10 -15 6 0 10 7 10 15 0 8 -4 15 -10 15 -5 0
-10 -7 -10 -15z"/>
<path d="M2390 1640 c-9 -6 -10 -10 -3 -10 6 0 15 5 18 10 8 12 4 12 -15 0z"/>
<path d="M2334 1605 c-8 -20 4 -35 21 -29 10 4 18 -3 25 -20 6 -18 14 -24 25
-19 11 4 13 9 6 16 -7 7 -7 17 1 31 6 12 7 18 3 14 -4 -4 -17 -1 -29 7 -26 19
-45 19 -52 0z"/>
<path d="M1649 1595 c-3 -11 0 -30 6 -42 11 -22 12 -22 28 -2 22 25 21 39 -2
39 -11 0 -21 6 -23 12 -3 7 -7 4 -9 -7z"/>
<path d="M1708 1528 c-16 -5 -28 -16 -28 -24 0 -16 -26 -19 -35 -4 -12 19 -23
10 -28 -22 -3 -20 0 -37 7 -43 6 -5 19 -28 27 -50 11 -28 20 -39 32 -37 9 2
17 -2 17 -8 0 -6 11 -15 25 -20 14 -5 25 -15 25 -21 0 -7 3 -9 7 -6 3 4 12 2
19 -4 10 -8 11 -16 3 -30 -8 -17 -6 -19 18 -19 30 0 126 -41 137 -58 8 -13
-19 -23 -41 -15 -11 5 -14 3 -8 -6 4 -8 18 -11 34 -8 20 4 31 0 41 -13 8 -11
26 -22 42 -25 15 -4 31 -12 35 -19 5 -7 21 -21 36 -31 21 -13 25 -20 15 -26
-7 -5 -9 -9 -4 -9 5 0 2 -8 -5 -17 -8 -9 -9 -14 -3 -10 17 10 23 -26 8 -41 -7
-7 -20 -12 -29 -12 -8 0 -15 -5 -15 -10 0 -13 49 -32 65 -26 7 2 18 0 26 -5
10 -6 6 -9 -14 -9 -15 0 -44 -7 -64 -15 -46 -19 -97 -19 -113 0 -10 12 -15 13
-20 4 -6 -8 -13 -8 -28 0 -11 6 -36 11 -56 11 -19 0 -38 5 -41 10 -3 6 -12 10
-20 10 -34 0 -138 76 -171 125 -10 15 -42 202 -44 253 0 1 -4 2 -10 2 -5 0 -9
-3 -8 -7 1 -5 -6 -26 -15 -47 -10 -22 -24 -63 -33 -93 -8 -29 -19 -55 -24 -58
-4 -3 -11 -17 -15 -32 -7 -29 -61 -93 -79 -93 -10 0 -137 -73 -166 -95 -8 -7
-42 -20 -75 -29 -110 -33 -130 -41 -188 -76 -33 -19 -71 -42 -85 -50 -15 -8
-28 -18 -30 -22 -2 -5 -10 -8 -18 -8 -8 0 -14 -5 -14 -12 0 -6 -3 -8 -6 -5 -4
4 -19 -2 -33 -12 -14 -10 -46 -29 -71 -41 -25 -12 -48 -28 -52 -34 -4 -6 -8
-7 -8 -2 0 5 -8 2 -17 -6 -10 -8 -65 -43 -122 -79 -57 -35 -132 -90 -165 -123
-34 -32 -76 -69 -93 -83 -18 -14 -33 -30 -33 -35 0 -6 -15 -31 -34 -57 -39
-53 -106 -174 -106 -190 0 -8 562 -11 2030 -11 l2030 0 -2 383 -3 382 -55 27
c-30 15 -70 30 -87 34 -18 3 -33 10 -33 15 0 5 -7 9 -16 9 -15 0 -34 7 -119
46 -22 10 -44 19 -50 19 -5 1 -17 4 -25 8 -44 19 -104 35 -116 30 -8 -3 -14 0
-14 6 0 6 -6 11 -14 11 -8 0 -27 5 -43 12 -15 6 -36 10 -45 9 -10 -1 -18 2
-18 7 0 5 -26 15 -57 22 -31 7 -64 16 -73 20 -72 36 -192 80 -202 74 -5 -3
-15 0 -23 6 -12 10 -15 9 -15 -9 0 -27 -6 -27 -34 4 -33 35 -40 31 -32 -17 l7
-42 -26 28 c-15 16 -25 39 -25 57 0 21 -5 29 -18 29 -19 0 -34 30 -52 105 -6
28 -22 69 -36 93 -34 58 -99 122 -123 122 -19 0 -20 -5 -15 -47 12 -113 15
-130 31 -160 13 -25 15 -37 6 -55 -6 -13 -18 -42 -27 -65 -15 -42 -83 -145
-99 -152 -5 -2 -20 -16 -35 -32 -14 -16 -34 -29 -44 -29 -10 0 -18 -4 -18 -10
0 -5 -9 -1 -20 10 -28 28 -64 26 -80 -5 -7 -14 -17 -25 -22 -25 -5 0 -6 5 -3
10 3 6 -1 10 -9 10 -9 0 -16 -4 -16 -10 0 -5 -13 -10 -29 -10 -16 0 -41 -4
-55 -10 -20 -7 -26 -6 -26 4 0 8 -7 16 -15 20 -11 4 -15 -1 -15 -19 0 -16 -6
-25 -15 -25 -18 0 -20 36 -2 44 9 3 7 8 -5 16 -9 6 -15 17 -12 25 5 11 -1 15
-21 15 -27 0 -28 0 -10 20 18 20 17 20 -9 20 -24 0 -26 3 -20 23 5 12 7 35 6
51 -1 21 4 29 19 33 11 3 18 11 15 19 -3 7 3 14 12 16 11 2 16 14 16 38 1 19
6 34 11 33 6 0 18 10 28 23 16 22 16 24 1 24 -11 0 -14 5 -10 16 3 9 6 19 6
24 0 4 14 10 30 14 17 3 30 10 30 16 0 5 -6 9 -12 8 -7 -2 -13 4 -13 12 0 8 5
14 11 13 13 -2 29 45 19 55 -3 3 -5 -2 -5 -12 0 -9 -5 -14 -10 -11 -6 4 -8 16
-4 27 4 13 -1 26 -15 39 -24 22 -35 24 -49 6 -6 -7 -35 -14 -64 -15 -82 -3
-129 -13 -135 -28 -3 -9 -13 -12 -24 -9 -10 3 -28 -1 -41 -9 -13 -8 -41 -14
-62 -14 -29 0 -44 -6 -56 -22 -14 -19 -18 -20 -29 -7 -8 10 -9 17 -1 22 21 13
9 24 -15 13 -14 -6 -25 -15 -25 -19 0 -5 -12 -4 -27 2 -14 5 -33 7 -41 4 -8
-3 -21 0 -28 6 -16 13 -19 33 -3 24 15 -10 61 4 54 15 -3 6 1 10 9 10 9 0 16
-4 16 -10 0 -5 9 -10 20 -10 12 0 20 7 20 16 0 10 -6 14 -15 10 -8 -3 -15 -1
-15 4 0 5 -12 8 -27 7 -24 -2 -28 2 -28 26 1 29 -5 31 -47 15z m5 -65 c-7 -2
-19 -2 -25 0 -7 3 -2 5 12 5 14 0 19 -2 13 -5z m1285 -513 c6 -16 7 -32 2 -35
-13 -8 -64 40 -56 53 14 23 44 13 54 -18z m-1508 -90 c0 -5 -2 -10 -4 -10 -3
0 -8 5 -11 10 -3 6 -1 10 4 10 6 0 11 -4 11 -10z"/>
<path d="M2320 1519 c0 -15 5 -19 15 -15 11 4 15 0 13 -11 -4 -24 19 -27 27
-3 5 15 1 26 -12 35 -26 21 -43 18 -43 -6z"/>
<path d="M1817 1524 c-13 -13 -7 -22 18 -27 20 -3 25 -1 23 12 -3 17 -29 26
-41 15z"/>
<path d="M1650 1509 c0 -5 5 -7 10 -4 6 3 10 8 10 11 0 2 -4 4 -10 4 -5 0 -10
-5 -10 -11z"/>
<path d="M1810 1200 c0 -5 5 -10 10 -10 6 0 10 5 10 10 0 6 -4 10 -10 10 -5 0
-10 -4 -10 -10z"/>
<path d="M1840 1200 c0 -5 5 -10 10 -10 6 0 10 5 10 10 0 6 -4 10 -10 10 -5 0
-10 -4 -10 -10z"/>
<path d="M2240 1020 c0 -11 2 -20 4 -20 2 0 6 9 9 20 3 11 1 20 -4 20 -5 0 -9
-9 -9 -20z"/>
<path d="M2060 980 c0 -5 5 -10 10 -10 6 0 10 5 10 10 0 6 -4 10 -10 10 -5 0
-10 -4 -10 -10z"/>
</g>
</svg>
