<svg xmlns="http://www.w3.org/2000/svg" width="390" height="256.562" viewBox="0 0 390 256.562">
  <g id="joyful_dancers.svg" transform="translate(-7.161 847.846)">
    <path id="Tracé_3" data-name="Tracé 3" d="M555.016-847.429c-.279.341-.124.931.869,3.009,1.8,3.723,2.079,5.4,1.458,8.966-.993,5.709-4.5,22.524-5.274,25.254a53.982,53.982,0,0,0-1.893,13.061l-.217,4.778-2.885-2.792c-3.165-3.071-5.212-4.5-7.1-4.995a10.173,10.173,0,0,1-2.451-1.117,2.731,2.731,0,0,0-2.327-.59c-.621.093-2.42.372-4,.621-3.754.62-4,.682-4.219,1.52a10.962,10.962,0,0,1-1.334,2.234l-1.148,1.551-.248-.931c-.124-.5-.465-3.289-.745-6.205a87.337,87.337,0,0,0-1.706-10.859c-.931-4.406-3.382-18.956-3.382-20.228a10.882,10.882,0,0,1,1.272-1.954,26.3,26.3,0,0,0,3.568-6.919c.279-1.179-.434-1.086-1.737.248-.558.589-1.086,1.024-1.148.962a4.664,4.664,0,0,1,.651-1.706q1.3-2.513.465-2.513c-.838,0-2.2,1.458-3.816,4.1-.962,1.582-2.11,3.351-2.544,3.94-1.613,2.265-1.8,3.692-1.551,13.216.093,4.778.465,14.209.776,20.942s.558,12.286.5,12.348c-.217.217-3.661-1.3-4.809-2.141-.9-.652-1.179-.776-.962-.372.279.558.155.589-1.768.5-1.489-.062-1.861,0-1.3.186a7.758,7.758,0,0,0,1.83.31c1.52.031,4.995,1.8,4.995,2.513a9.781,9.781,0,0,1-3.164.186,22.83,22.83,0,0,0-4.033.217c-.9.248-1.179.838-.4.838.248,0,.745.558,1.055,1.21a13,13,0,0,0,5.367,4.623c1.551.869,2.11,1.3,2.11,1.8,0,.589-.217.683-2.234.838-2.606.186-5.057.931-6.143,1.8-.745.589-.714.589.528,0,1.3-.652,4.25-.9,4.56-.4.062.124-.682.558-1.675.931-2.11.838-4.561,2.854-5.15,4.313-.652,1.52-.558,1.52,1.272-.155a16.925,16.925,0,0,1,3.1-2.234c1.427-.683,3.63-.993,4.064-.558.248.279-1.086,1.458-1.737,1.52-.745.062,1.272.527,2.575.558l1.148.031v1.551c0,1.365-.093,1.551-.776,1.737a3.187,3.187,0,0,1-1.706-.279c-.807-.434-.931-.434-.931-.031a2.9,2.9,0,0,0,.31,1.055c.279.527.155.651-.962.931-3.009.807-6.174,2.761-6.174,3.816,0,.186.372-.031.869-.434,1.924-1.768,4.343-2.7,5.647-2.172.776.31.776.31-.186.31-2.823.062-5.4,1.893-6.918,4.933-1.21,2.389-1.52,3.754-.372,1.582a10.758,10.758,0,0,1,4.561-4.5,11.632,11.632,0,0,1,5.553-.124c.5.217.372.279-.714.465a3.623,3.623,0,0,0-1.458.465c-.093.124.465.465,1.241.745,1.024.4,1.4.714,1.52,1.365.093.465.465,2.482.807,4.5l.652,3.661-.838,2.079c-1.675,4.126-1.334,8.594.838,11.076a14.01,14.01,0,0,1,1.613,2.513c.652,1.427.683,1.924.652,7.725a63.039,63.039,0,0,1-1.148,13.341c-.62,3.94-1.148,7.57-1.148,8.1,0,1.613-1.148,5.119-5.305,16.288-2.2,6.019-4.312,12.037-4.654,13.434-.434,1.83-.683,4.5-.9,9.959-.465,11.169-.931,13.806-3.009,17.963a25.7,25.7,0,0,1-5.677,8.035c-2.3,2.11-3.009,3.258-4.188,6.949-.931,2.792-2.73,9.866-3.289,12.813A19.515,19.515,0,0,1,484.5-617.6c-1.21,1.582-1.862,3.351-2.389,6.422-.217,1.117-.9,4.25-1.582,6.981-1.272,5.15-1.4,7.353-.434,7.725a.747.747,0,0,1,.465.652c0,.62,2.141,2.947,2.73,2.947a2.356,2.356,0,0,1,1.179.776c.962,1.055,2.792,1.086,3.2.062.465-1.117,2.141-13.03,2.513-17.715.5-6.36,1.954-10.114,5.74-14.613,1.706-2.047,10.331-13.278,15.45-20.135a34.482,34.482,0,0,0,4.592-9.276c1.551-4.592,2.916-7.694,6.826-15.419,5.864-11.6,5.926-11.7,7.849-12.534a11.571,11.571,0,0,1,5.553-1.21c1.365.279,2.265,1.831,6.887,12.193,5.491,12.286,8.78,17.9,13.62,23.268a31.71,31.71,0,0,1,2.668,3.165c0,.4,2.575,1.737,8.5,4.406,23.362,10.579,30.032,16.629,30.932,28.108.155,1.955.372,3.971.465,4.5.093.5.31,1.675.465,2.575.248,1.3.434,1.613.931,1.613.589,0,3.351-2.668,3.382-3.227a4.294,4.294,0,0,1,.776-1.179c1.52-1.8,1.52-2.73.124-8.5-.683-2.885-1.365-6.267-1.52-7.539-.31-2.792-.869-3.6-3.289-4.84-2.048-1.055-4.964-4.188-8.284-9a49.344,49.344,0,0,0-3.568-4.53c-3.475-3.723-10.393-7.849-14.582-8.687-1.675-.341-2.048-.558-2.451-1.334-.9-1.768-2.823-7.229-5.181-14.923-1.334-4.281-2.978-9.556-3.661-11.758s-2.7-7.446-4.5-11.6c-1.769-4.188-4.157-10.052-5.274-13.061-2.482-6.67-2.544-7.353-2.575-21,0-9.866,0-9.99.931-14.582a40.189,40.189,0,0,1,3.32-10.8c1.551-3.6,1.737-4.654,4.343-25.161.31-2.544.5-7.756.589-16.6.155-12.751.155-12.906,1.055-17.374,1.117-5.429,2.637-14.985,3.165-19.825.31-2.947.5-3.568,1.024-3.909a49.663,49.663,0,0,1,4.654-1.893c5.957-2.172,6.732-3.071,2.482-2.854a17.953,17.953,0,0,1-2.637.031c0-.031.5-.714,1.086-1.52a5.975,5.975,0,0,0,1.086-1.861c0-.869-.962-.838-2.327.124l-1.334.931.62-1.024c1.055-1.8,0-2.3-1.83-.9-.589.434-1.148.714-1.272.589a11.819,11.819,0,0,1-.372-2.885c-.093-1.489-.279-2.7-.465-2.7a7.142,7.142,0,0,0-1.427,2.172c-.962,1.923-1.21,2.172-2.079,2.265-.931.093-1.024,0-2.11-2.172C556.878-847.584,555.885-848.484,555.016-847.429ZM511.24-788.451a3.8,3.8,0,0,1,3.009,2.854l.217,1.024-1.675-.652a20.172,20.172,0,0,1-5.616-3.164l-1.024-.9,1.831.186A23.244,23.244,0,0,1,511.24-788.451Z" transform="translate(-325.768 0)"/>
    <path id="Tracé_4" data-name="Tracé 4" d="M149.049-830.324a4.614,4.614,0,0,1-1.551.279,6.226,6.226,0,0,0-4,2.11c-1.117,1.334-1.3,3.04-.652,5.8l.558,2.327-2.017,3.661c-1.117,2.017-3.6,6.453-5.522,9.866-1.955,3.413-4.561,8.284-5.8,10.859-2.3,4.685-3.04,5.988-3.351,5.677a18.572,18.572,0,0,1-.807-2.575c-.621-2.42-1.861-5.212-2.451-5.585-.186-.124-.31.217-.31.838a3.135,3.135,0,0,1-.31,1.489c-.4.62-1.024-1.086-.838-2.3l.124-.931-.683.9-.714.869-.341-1.675a11.838,11.838,0,0,0-.807-2.451c-.5-.869-.589-.714-.186.372.434,1.179.683,3.04.434,3.04-.5,0-1.675-2.668-1.458-3.258.186-.435.124-.527-.217-.4a1.81,1.81,0,0,1-1.241-.248c-.993-.558-1.458-.527-1.582.062-.062.434-.279.372-1.148-.372l-1.055-.869.217,1.148c.124.714.093,1.148-.093,1.148-.434,0-1.055-1.179-1.241-2.451l-.186-1.055-.9,1.644-.9,1.675-.434-1.458a2.985,2.985,0,0,0-.683-1.458c-.155,0-.527.621-.869,1.4-.558,1.365-1.334,1.892-1.334.9,0-.465-.062-.465-.683-.031-.683.434-.776.372-2.172-1.055-1.644-1.737-2.358-1.986-1.644-.589.807,1.551.4,3.071-.434,1.613-.186-.31-.341-.372-.341-.124,0,.217-.124.31-.31.217-.186-.124-.31.155-.31.62s-.124.745-.31.621a3.044,3.044,0,0,1-.31-1.644v-1.458l-.62,1.024a4.215,4.215,0,0,0-.62,1.458c0,.558-.372.589-.9.062-.341-.31-.4-.31-.217,0,.124.248.031.4-.248.4-.372,0-.186.4.589,1.427,1.117,1.458,1.582,3.382.589,2.606a12.626,12.626,0,0,1-1.3-1.83l-.807-1.4-.372.9-.341.869-.4-.683c-.558-1.086-.683-.589-.155.683.652,1.613.62,3.32-.062,3.32a25.373,25.373,0,0,1-4.561-1.086c-.5-.217-.527-.155-.341.776.217.993.217.993-.9.869-.745-.093-1.148.031-1.272.31-.093.279-.4.341-.838.217-1.986-.558-1.893-.59-1.737.279.217,1.024.031,1.024-1.055-.031l-.869-.838v2.73l-.931-1.055c-1.055-1.272-1.086-1.21-.434.745a3.717,3.717,0,0,1,.341,1.613c-.31.341-1.893-.31-3.2-1.3-1.458-1.117-1.613-1.024-.931.651l.465,1.086H76.172L78-787.51a8.959,8.959,0,0,1,1.675,2.017,3.827,3.827,0,0,1-1.644-.279c-1.272-.372-1.4-.372-1.086,0a20.367,20.367,0,0,0,6.081,2.916c.4,0,.683.124.589.248a7.779,7.779,0,0,1-2.668.465c-3.723.279-4.1.714-.838.993,2.358.186,2.637.279,2.172.651-.5.372-.434.4.714.434,1.458,0,3.227.528,3.227.962,0,.558-2.11,1.21-3.94,1.241l-1.8.031,2.11.683,2.079.651-1.8.714c-1.924.745-4.871,2.482-4.654,2.73a6.323,6.323,0,0,0,1.83-.62,33.7,33.7,0,0,1,6.422-2.048c.248,0-.093.4-.745.9A11.634,11.634,0,0,0,82.315-771c-.745,1.427-.372,1.3.807-.279a9.449,9.449,0,0,1,4.033-3.351c.683-.186.62-.062-.465.993a18.523,18.523,0,0,1-2.017,1.706l-.776.527,1.086-.31c1.675-.434,1.675-.4.217,1.489-.745.993-1.83,2.575-2.42,3.506a26.337,26.337,0,0,1-2.048,2.916,3.68,3.68,0,0,0-1.024,2.172c.031.9.093.838.931-.776.993-1.954,2.792-3.692,3.785-3.692.745,0,.714.031-1.458,2.451l-.931,1.024,1.024-.5c1.21-.621,1.241-.5.093,1.148-.9,1.334-.962,2.079-.155,2.079a6.5,6.5,0,0,0,2.079-1.489c2.761-2.544,2.761-2.544,2.2-.838a4.462,4.462,0,0,0-.372,1.582,5.762,5.762,0,0,0,1.3-1.737c1.148-1.831,2.73-3.258,2.234-1.986-.558,1.458-1.148,4.188-.931,4.5.124.217.652-.4,1.241-1.458,1.055-1.862,1.334-1.924.714-.155-.186.559-.279,1.055-.186,1.148.062.093.807-.683,1.644-1.737a12.832,12.832,0,0,1,1.706-1.862c.279,0,1.024,2.575.931,3.258a4.013,4.013,0,0,1-1.706,2.7c-.558.248-1.427.155-3.63-.372a62.393,62.393,0,0,0-7.1-.931,55.516,55.516,0,0,1-7.694-1.055c-1.924-.434-6.112-1.148-9.307-1.613-5.8-.807-6.2-.931-9.68-2.854-1.986-1.086-4.126-1.706-8.687-2.389-1.8-.279-7.384-1.551-12.441-2.792-5.057-1.272-10.424-2.451-11.945-2.637-1.52-.217-3.971-.62-5.46-.962-2.916-.621-4.778-.745-4.964-.31a20.931,20.931,0,0,1-2.885,2.265,14.1,14.1,0,0,0-2.885,2.451c-.186.931,1.83,4.033,3.165,4.84a21.318,21.318,0,0,1,2.7,2.141,8.793,8.793,0,0,0,2.637,1.644c1.3.372,2.916.465,2.916.155a3.409,3.409,0,0,0-1.582-1.955l-.931-.589,2.172-1.582,2.172-1.582,1.644.776a5.223,5.223,0,0,0,3.413.558c1.737-.186,1.924-.124,5.15,1.551,1.83.931,6.546,3.133,10.455,4.871,7.415,3.32,11.293,4.53,16.6,5.274,2.2.31,3.568.776,8.377,2.947,7.57,3.413,10.673,4.654,14.426,5.74,1.706.5,4.933,1.582,7.136,2.42,3.754,1.427,4.126,1.644,5.15,2.978a22.83,22.83,0,0,1,3.537,7.167c.093.682.248,1.551.341,1.954a9.065,9.065,0,0,0,1.83,2.544,19.314,19.314,0,0,1,2.2,2.854,28.138,28.138,0,0,0,3.133,4.623,16.794,16.794,0,0,1,1.8,3.009,7.21,7.21,0,0,0,1.365,2.234c.341,0,2.389,4.188,2.73,5.522a10.627,10.627,0,0,0,.962,2.172,4.405,4.405,0,0,1,.714,2.575,9.91,9.91,0,0,0,.279,2.451,2.379,2.379,0,0,1-.465,2.575,7.137,7.137,0,0,0-1.024,2.451,2.54,2.54,0,0,1-.745,1.613,1.25,1.25,0,0,0-.527,1.024,5.785,5.785,0,0,1-.558,1.955c-2.606,5.584-3.04,7.136-3.04,11.014,0,5.74,1.024,8.129,5.709,13.279a22.9,22.9,0,0,1,1.893,2.265,19.081,19.081,0,0,1-2.792-2.389c-2.854-2.637-6.329-5.243-7.012-5.243a11.342,11.342,0,0,1-2.42-1.4,9.838,9.838,0,0,0-2.575-1.4,3.255,3.255,0,0,0-1.365.651c-.838.589-.993.621-1.644.186-.683-.465-.714-.4-1.737,1.272l-1.024,1.737L93.67-671.2c.745.62,1.8,1.489,2.327,1.954l.931.838L94.6-667.32a22.44,22.44,0,0,1-4.9,1.52,7.386,7.386,0,0,0-4.25,1.768c-4.623,3.568-9.307,10.642-8.128,12.224a4.707,4.707,0,0,0,1.3.931c.869.465.9.558.931,2.513,0,1.923.062,2.079.962,2.637.9.59.962.59,1.986.031a17.957,17.957,0,0,0,3.258-3.165c2.42-2.854,2.885-3.164,5.429-3.661,5.678-1.117,5.553-1.117,6.484-.558a4.42,4.42,0,0,0,1.8.527,2.333,2.333,0,0,1,1.706.931,2.293,2.293,0,0,0,2.2.931c.9,0,1.458.155,1.551.434a1.719,1.719,0,0,0,1.117.651,2.339,2.339,0,0,1,1.117.5,1.381,1.381,0,0,0,.931.279.963.963,0,0,1,.869.434c.217.527,3.009,2.42,4.716,3.2a19.017,19.017,0,0,1,2.234,1.241,3.886,3.886,0,0,0,1.241.714,3.147,3.147,0,0,1,.869,1.024,2.428,2.428,0,0,0,1.3,1.086,11.912,11.912,0,0,1,3.009,2.575,22.449,22.449,0,0,0,2.606,2.451c.434,0,3.475,3.258,3.475,3.723,0,.807,1.955,3.506,3.071,4.25a4.316,4.316,0,0,0,2.73.714,4.891,4.891,0,0,1,3.444,1.21c5.833,3.94,11.138,5.243,14.426,3.537a19.8,19.8,0,0,0,5.336-4.747c1.924-2.792,1.893-5.305-.124-13.341-2.11-8.315-3.227-11.231-7.539-19.7-2.265-4.437-4.53-8.718-5.026-9.462a61.385,61.385,0,0,1-3.227-5.833c-.217-.465-.527-1.055-.683-1.3a9.361,9.361,0,0,1-1.644-4.809c.093-4.374.31-6.887.714-7.508.372-.589.372-.745-.062-1.241-.465-.527-.527-2.3-.186-4.747.217-1.365-.527-4.933-1.489-7.136a20.665,20.665,0,0,1-1.334-4.561c-.838-6.422-4.84-22.493-6.515-26.34-.62-1.4-.62-1.52-.155-3.351,1.179-4.53-.031-8.19-4.219-12.751-1.4-1.52-3.04-3.382-3.63-4.1l-1.086-1.3.062-5.647c.031-5.119.093-5.739.652-6.515.527-.745.714-.838,1.4-.589,1.179.465,1.3.372.341-.248-.465-.31-.745-.683-.62-.776.31-.31,3.506-.248,4.685.093.869.217.993.217.714-.124-.4-.465.124-.807,1.3-.838h.683l-.683-.279a13.124,13.124,0,0,0-3.04-.372,9.264,9.264,0,0,1-2.327-.248,2.606,2.606,0,0,1,.558-.807c.4-.5,1.117-.745,2.916-1.024,2.7-.372,4.778-1.241,5.864-2.389.683-.714.558-.682-1.644.341-2.792,1.272-3.475,1.4-1.489.279,1.489-.838,2.792-1.924,2.792-2.327a6.9,6.9,0,0,0-2.3.838c-2.978,1.365-3.2,1.334-.9-.155,1.737-1.117,3.2-2.575,3.2-3.2,0-.155-.434.217-.993.838a13.219,13.219,0,0,1-4.1,3.04c-.31.124.5-.775,1.8-1.986a15.112,15.112,0,0,0,2.358-2.513c0-.186-.186-.155-.465.062-1.644,1.365,1.644-3.692,3.909-6.05,3.785-3.909,4.84-6.329,8-18.429l1.582-6.019,2.761-4.53c1.52-2.482,3.444-5.553,4.343-6.825a12.622,12.622,0,0,0,1.768-3.351,3.017,3.017,0,0,0-1.3-3.2,1.347,1.347,0,0,1-.745-1.272c0-.465-.093-.931-.248-1.024A5.227,5.227,0,0,0,149.049-830.324Z" transform="translate(0 -11.985)"/>
    <path id="Tracé_5" data-name="Tracé 5" d="M947.331-767.462c-.31.5-1.055,1.4-1.582,2.048a3.356,3.356,0,0,0-1.024,2.978,9.647,9.647,0,0,0,2.3,6.763,8.046,8.046,0,0,1,1.427,2.2c0,.248-.279,1.955-.651,3.785-1.986,10.424-6.174,22.989-8,23.982-1.644.869-12.72,2.017-22.369,2.358-4.685.155-4.84.186-6.515,1.148-2.575,1.458-4.809,3.692-5.584,5.647-.807,2.017-1.365,2.3-2.451,1.272a5.979,5.979,0,0,0-2.358-1.148,5.731,5.731,0,0,1-2.668-1.427c-1.086-1.024-1.117-1.117-.838-2.513a10.16,10.16,0,0,0-.683-5.553c-.838-1.893-6.019-7.508-7.632-8.191a13.8,13.8,0,0,0-7.229-.621c-6.174.962-10.114,5.4-11.324,12.813l-.217,1.117-1.3-.713a18.527,18.527,0,0,1-3.164-2.637c-1.365-1.365-2.079-1.861-2.7-1.861-.59,0-1.768-.745-3.878-2.42a79.779,79.779,0,0,0-9.556-6.887c-2.637-1.458-5.367-3.723-9.245-7.6l-3.351-3.382.248-3.1c.124-1.737.186-3.475.155-3.909s-.124-2.606-.186-4.809l-.124-4.033-.807-.093c-.962-.124-1.272.5-1.83,3.94-.62,3.6-1.086,3.444-3.909-1.365-1.893-3.227-2.389-3.878-2.947-3.816-.558.093-.652.31-.621,1.4.031,1.21,0,1.272-.4.714-.931-1.334-2.265-1.458-2.916-.279-.341.682.465,2.544,1.582,3.537.714.621,1.706,2.575,1.458,2.823-.217.217-2.234-2.451-2.668-3.537-.589-1.4-1.458-1.831-2.234-1.117a1.814,1.814,0,0,0-.59,1.086,12.6,12.6,0,0,0,1.862,3.04c1.024,1.4,1.706,2.513,1.52,2.513a6.576,6.576,0,0,1-2.451-2.668c0-.217-.4-.527-.931-.683-.807-.279-.962-.248-1.272.279-.248.5-.093.993.807,2.606a7.4,7.4,0,0,0,2.792,3.1,6.67,6.67,0,0,1,1.706,1.334,7.522,7.522,0,0,0,1.706,1.644c1.924,1.52,8.377,8.532,12.689,13.775a99.534,99.534,0,0,0,18.491,17.188c2.234,1.551,2.327,1.675,3.164,3.971.5,1.3,1.117,3.258,1.4,4.344.465,1.955.528,2.017,3.382,4.312,4.871,3.909,6.7,6.267,7.415,9.525a4.176,4.176,0,0,0,1.955,2.42,20.114,20.114,0,0,1,1.613,4.468,148.685,148.685,0,0,0,5.74,16.567l1.365,2.978.372,6.2.372,6.205-1.055,1.489c-1.334,1.893-1.489,4.064-.372,5.243.62.652.652.838.341,1.893-.279.962-1.427,2.11-6.112,6.2-15.14,13.217-22.276,20.29-24.6,24.416-2.2,3.909-4.126,12.162-3.723,16.04.124,1.365-.186,1.086,6.794,6.453.341.248.31,3.289-.062,16.691l-.465,16.412-2.234,4.219c-5.15,9.835-7.508,12.317-13.278,13.837-1.706.434-2.141.714-2.885,1.737-.745,1.055-.807,1.3-.465,1.986a5.185,5.185,0,0,0,1.83,1.706l1.458.9,3.661-.4a68.923,68.923,0,0,0,11.541-2.2,83.461,83.461,0,0,1,8.842-1.644,59.421,59.421,0,0,0,6.36-1.086,12.775,12.775,0,0,0,.155-3.134,9.634,9.634,0,0,0-1.768-6.2,18.03,18.03,0,0,1-1.427-4.343,15.811,15.811,0,0,0-.993-3.475c-.838-1.024.62-14.364,2.079-18.956a59.5,59.5,0,0,0,2.172-10.61,72.519,72.519,0,0,1,2.42-10.207l1.986-6.608,2.606-1.862a62.4,62.4,0,0,0,8.346-7.012c1.862-1.862,3.506-3.009,8.346-5.864,3.289-1.924,6.143-3.568,6.3-3.6.186-.031.5.5.682,1.179a35.2,35.2,0,0,0,1.706,3.816c2.637,5.243,4.716,10.89,5.305,14.4.217,1.458.124,2.141-.993,5.988-.652,2.389-1.458,5.026-1.769,5.895a7.35,7.35,0,0,0-.434,2.668c.124,1.024-.031,1.334-2.3,3.878-4.406,4.995-5.709,7.353-5.74,10.393-.031,2.916,1.427,4.405,4.374,4.374,2.668-.031,5.957-1.986,10.331-6.205a25.238,25.238,0,0,0,6.422-9.835c.931-2.389.962-2.668.962-7.074v-4.561l-1.086-2.172a12.393,12.393,0,0,0-1.4-2.327,6.7,6.7,0,0,1-.31-2.575c0-3.165.869-14.737,1.241-16.505a21.356,21.356,0,0,0,.31-2.668,6.07,6.07,0,0,1,.807-2.73,3.857,3.857,0,0,0,.651-1.8c-.062-.248.59-.745,1.613-1.21,3.444-1.613,7.1-5.336,10.021-10.269,1.272-2.172,1.3-2.3,1.3-4.933-.031-2.327-.124-2.885-.869-4.126-.807-1.4-.807-1.458-.5-4.188l.341-2.792-1.179-2.42a15.922,15.922,0,0,0-2.668-3.94c-1.458-1.458-1.52-1.551-1.3-2.854a9.945,9.945,0,0,1,.993-2.823,9.271,9.271,0,0,0,.962-3.568,5.305,5.305,0,0,0-.807-3.878,28.7,28.7,0,0,1-2.73-9.214,50.137,50.137,0,0,1,.62-8.439c.434-3.413.807-6.391.807-6.546a32.312,32.312,0,0,1,4.747-3.382,89.168,89.168,0,0,0,7.291-5.336c2.141-1.924,2.544-2.42,2.575-3.258a5.281,5.281,0,0,1,.248-1.582c.124-.341,2.11-1.675,4.405-2.979,4-2.265,4.188-2.451,5-4.064,1.954-3.94,4.126-14.365,4.592-22.152.434-7.136.838-9.556,1.923-12.1s1.241-4.53.4-5.429a9.291,9.291,0,0,0-2.2-1.427,4.927,4.927,0,0,1-1.8-1.241.667.667,0,0,0-.589-.434c-.217,0-.714-.434-1.086-.931-.4-.527-.869-.931-1.086-.931s-.807-.5-1.334-1.148l-.962-1.117Z" transform="translate(-560.353 -54.867)"/>
    <path id="Tracé_6" data-name="Tracé 6" d="M268.2-717.069c0,.434.062.589.155.372a1.638,1.638,0,0,0,0-.776C268.262-717.659,268.2-717.5,268.2-717.069Z" transform="translate(-180.052 -89.872)"/>
  </g>
</svg>
