<svg xmlns="http://www.w3.org/2000/svg" width="339.75" height="289.461" viewBox="0 0 339.75 289.461">
  <g id="speakers" transform="translate(-0.594 1089.896)">
    <path id="Tracé_9" data-name="Tracé 9" d="M443.763-1089.445c-.425.77.345,103.87,1.036,138.689.133,6.932.372,24.673.531,39.439.531,51.285,1.009,64.644,2.39,66.928,1.169,1.939,1.222,3.214,1.089,21.247-.053,10.491.133,15.51.823,19.52.292,1.833.85,3.187,1.3,3.187.93,0,4.595-2.337,10.252-6.56a48.69,48.69,0,0,1,4.648-3.16c.637-.319,1.673-.823,2.337-1.142,1.594-.77,4.966-3.267,10.836-8.074,3.506-2.895,4.834-4.117,4.834-4.541,0-.292-.106-5.763-.266-12.111-.133-6.348-.372-17.582-.531-24.965-.717-34.686-1.859-61.855-2.789-66.53-1.381-6.8-2.2-24.62-3.718-80.871l-.691-25.337-3.612-7.2c-15.909-31.711-23.664-45.548-26.984-48.363C444.348-1090.056,444.109-1090.083,443.763-1089.445Z" transform="translate(-325.38)" fill="rgba(0,0,0,0.5)"/>
    <path id="Tracé_10" data-name="Tracé 10" d="M722.633-1087.47c-3.718,3.426-8.711,12.748-9.641,17.953-.345,1.992-.452,2.2-1.541,3.187-2.1,1.859-5.737,8.26-13.12,22.92l-5.312,10.544-.159,5.71c-.106,3.134-.4,14.979-.691,26.293-.956,37.527-1.434,51.391-2.257,65.6-.478,7.941-.8,11.394-1.328,13.943-.956,4.7-2.072,29.666-2.789,63.077-.159,7.091-.4,17.768-.531,23.77-.159,5.976-.266,11.155-.266,11.447,0,.425,1.328,1.647,4.86,4.542,7.383,6.029,10.889,8.578,11.871,8.578.5,0,3.479,1.992,8.393,5.63,3.506,2.6,6.294,4.329,7.437,4.621.558.133.637.027,1.009-1.275,1.115-3.878,1.886-17.582,1.7-30.091-.133-9-.027-10.411.93-12.243,1.3-2.47,2.337-47.726,3.373-145.78.372-33.915.717-58,1.115-74.5.451-18.936.451-23.292-.053-24.3C725.024-1089.064,724.307-1088.984,722.633-1087.47Z" transform="translate(-502.637 -0.887)" fill="rgba(0,0,0,0.5)"/>
    <path id="Tracé_11" data-name="Tracé 11" d="M104.015-1049.1c-2.789.956-6.533,2.682-21.114,9.72-13.147,6.347-22.07,10.49-35.721,16.679-23.929,10.836-32.03,14.873-36.093,18.033-2.364,1.859-2.629,2.523-2.948,7.7-.451,7.888-1.965,51.869-2.656,78.162-.133,5.551-.372,14.74-.531,20.45-.637,23.8-.8,32.322-.93,45.548-.212,19.892-.558,24.779-1.992,27.488C.888-823.142.569-820.247.6-812.173c.027,12.854.876,14.156,10.65,16.307,2.364.531,4.462.956,4.621.956A18.917,18.917,0,0,0,13-798.177c-5.923-6.029-5.737-4.754-5.763-40.289-.027-30.144.027-30.808,2.55-36.917,3.957-9.428,4.409-12.323,5.79-36.917,2.2-38.829,5.737-67.831,9.03-74.364,1.275-2.5,2.018-4.887,3.054-9.694,1.965-9.109,2.868-11.367,5.816-14.448,2.2-2.311,5.6-4.356,15.165-9.057,19.361-9.561,25.2-11.447,29.294-9.4,2.789,1.381,3.957,3.8,6.932,14.209,2.1,7.383,3.346,10.969,4.01,11.606,1.434,1.381,2.868,7.2,4.488,18.166a415.272,415.272,0,0,1,4.276,47.62c.266,7.277.637,9.853,1.594,11.447.744,1.2,1.222,4.462,1.62,11.1.292,5.126.186,15.138-.186,16.679-.292,1.3-.584,1.169-8.207-3.8-6.64-4.3-10.3-6.108-16.6-8.074-6.48-2.019-12.456-2.709-16.758-1.886-2.895.531-4.754.558-4.754.053,0-.611,1.408-1.461,4.7-2.842,3.665-1.54,5.02-2.417,5.6-3.665.425-.876.611-.983,2.656-1.514,2.975-.744,5.152-2.284,9.508-6.613a42.793,42.793,0,0,0,8.632-11.58c2.018-3.8,2.6-4.754,3.612-5.843,1.2-1.3,2.47-8.26,3-16.147.425-6.188-.159-9.3-2.39-13.067-5.524-9.3-14.528-15.563-22.575-15.7a79.167,79.167,0,0,0-8.9.5c-.292.08,1.275-1.7,3.453-3.957a63.914,63.914,0,0,0,5.391-6.109c4.01-5.843,5.365-12.084,3.373-15.537-1.487-2.576-6.905-7.171-9.136-7.782-1.806-.478-4.488.717-7.144,3.16-1.275,1.169-1.275,1.62.027,1.62,3.107,0,9.428,6.215,10.225,10.013.93,4.462-2.682,11.022-7.914,14.395-3.081,1.992-8.844,3.293-11.845,2.682-1.673-.345-2.1-.212-1.673.584.478.876,2.47,1.567,5.285,1.833,4.063.372,8.446,1.939,10.438,3.665,1.142,1.009,1.222,1.434.4,2.019-.823.557-.372.823,1.939,1.036,3.32.345,7.118,1.7,7.808,2.815.345.558-.106.611-2.47.292a29.047,29.047,0,0,0-13.6,1.089c-9.056,2.922-17.476,10.677-20.609,18.963-2.815,7.436-2.762,19.627.08,24.832,1.54,2.868,5.657,5.816,9.428,6.772,2.364.611,3.931.4,6.587-.9a41.921,41.921,0,0,1,5.71-2.071c4.356-1.222,6.055-2.125,8.685-4.595a66.848,66.848,0,0,0,10.969-14.5c1.594-3.187,1.992-5.259,1.992-10.491,0-6.321-.637-10.145-2.018-11.978-1.567-2.045-2.5-5.179-1.7-5.683.5-.319,2.018.77,4.276,3.027,2.842,2.868,3.824,4.728,4.2,7.994.4,3.346,1.408,6.374,2.151,6.374a3.806,3.806,0,0,0,1.142-.983l.93-.956.345.638c.5.85.5,7.436,0,9.933a58.614,58.614,0,0,1-4.17,13.2c-.744,1.434-2.125,3.134-2.6,3.134-.611,0-1.726,1.461-2.815,3.692-1.275,2.576-2.762,4.143-6.055,6.321a55.216,55.216,0,0,1-14.315,6.613,24.3,24.3,0,0,1-6.719.9c-4.515.239-6.055.5-6.772,1.222-1.3,1.3.319,1.965,5.923,2.311a26.855,26.855,0,0,1,4.3.452,27.893,27.893,0,0,1-3.771,1.169c-2.1.531-3.984,1.062-4.2,1.142-.212.106,1.328.319,3.453.478a36.718,36.718,0,0,1,8.366,1.381c1.726.531,3.32,1.354,3.32,1.673,0,.159-.876.266-2.045.266-3.824,0-6.666.876-6.055,1.833.558.929,4.356,1.859,7.569,1.886,6.215.026,17.157,3.957,20.928,7.543,1.594,1.487,1.647,2.523.106,3.107-.956.372-2.789-.159-6.56-1.939-7.224-3.373-11.1-4.3-17.927-4.3a30.982,30.982,0,0,0-7.357.584,36.32,36.32,0,0,0-16.758,8.393c-3.24,2.709-4.595,3.453-6.215,3.4-1.567-.026-2.231.5-2.47,1.992a62.135,62.135,0,0,1-2.576,9.88c-2.6,7.782-3,10.464-2.975,20.477,0,6.746.08,8.366.611,11.686,1.434,9.375,3.718,15.829,6.507,18.564a5.737,5.737,0,0,0,2.975,1.647,15.075,15.075,0,0,0,2.895.5c1.354,0,1.726.372,1.726,1.62,0,.85.106,1.036.9,1.407,2.364,1.116,8.525,1.753,17,1.753,12.4,0,17.343-1.2,22.681-5.471,6.135-4.913,11.9-13.6,13.731-20.689,1.062-4.17,1.487-12.137,1.2-23.026-.159-5.577,0-6.188,1.2-4.966,1.514,1.487,2.523,6.932,2.523,13.545,0,6.958-.531,10.225-2.257,13.837a9.776,9.776,0,0,0-.93,2.629,1.818,1.818,0,0,0,2.072,1.859c1.514-.133,2.762-9.455,2.789-20.875.027-7.33-.266-8.472-4.223-16.387-2.815-5.63-3.957-8.206-4.781-10.969-1.142-3.692-.319-4.3,2.337-1.779a42.989,42.989,0,0,1,6.905,9.269c2.337,4.435,3.346,7.888,4.568,15.882.744,4.728,1.248,6.693,1.992,7.6,1.142,1.434,1.753-.027,2.178-5.205.319-3.585.584-4.515.9-3a15.394,15.394,0,0,0,.717,2.125c.558,1.275,1.142,1.7,2.257,1.567.478-.053.611.106.8.956.319,1.461.186,11.181-.186,15.431-.664,7.383-1.594,11.155-3.984,15.855-5.63,11.155-17.157,23.239-24.168,25.39-2.284.69-3.771,1.567-4.2,2.443-.8,1.647-5.285,2.948-13.067,3.771-9.694,1.036-15.351.159-22.973-3.585-8.658-4.249-16.095-10.464-20.424-17.051-3.16-4.834-5.126-6.719-5.63-5.391-.292.77,1.062,2.921,6.507,10.225,2.815,3.771,6.64,7.808,7.808,8.233,2.151.8,3.107,1.381,3.9,2.364,2.656,3.293,12.7,7.915,21.486,9.853,15.112,3.346,36.12-4.728,49.213-18.91,4.7-5.1,6.533-6.985,6.693-6.826.4.372.717,4.674.876,11.128.159,7.543-.159,11.287-1.222,14.395-1.594,4.621-4.249,7.118-8.021,7.569-.717.08-1.248.212-1.2.292.717.717,17.4,2.151,19.255,1.647a1.319,1.319,0,0,0,.9-.956c.4-1.248.531-32.88.212-45.548-.664-25.895-1.169-47.593-2.417-108.067-1.62-77.551-2.868-108.837-4.409-111.227C109.752-1050.032,107.361-1050.244,104.015-1049.1ZM64.31-964.115c3.984,2.47,5.657,6.215,5.391,12.164-.159,3.373-.664,4.993-1.806,5.922-2.47,1.966-3.107,2.762-3.32,4.117a6.77,6.77,0,0,1-2.443,4.409,19.6,19.6,0,0,1-13.89,4.7,9.73,9.73,0,0,1-4.037-.8c-2.815-1.3-5.312-4.223-5.365-6.294-.027-1.434,1.062-2.921,3.373-4.648a18.572,18.572,0,0,0,4.435-4.409,13.6,13.6,0,0,0,.691-2.682,9.979,9.979,0,0,1,1.036-3.16,8.325,8.325,0,0,1,6.64-3.453c2.5,0,4.648-1.354,6.241-3.9,1.036-1.647,1.726-2.47,2.1-2.47A3.651,3.651,0,0,1,64.31-964.115Zm5.073,89.024A9.2,9.2,0,0,1,73.34-870.6a13.555,13.555,0,0,0,4.595,5.1,4.1,4.1,0,0,1,1.594,1.992c.691,1.487.717,1.726.717,5.922,0,5.551-.85,9.8-3.24,16.2-1.859,4.94-3.585,8.26-5.073,9.694A27.743,27.743,0,0,1,57.8-824.682a22.593,22.593,0,0,0-4.382,1.594,31.4,31.4,0,0,1-3.267,1.461c-.983.319-2.311-.319-4.488-2.125s-3.028-2.231-3.612-1.726c-.77.637-5.843-4.382-8.286-8.18-2.523-3.984-2.656-6.666-.292-6.666a5.7,5.7,0,0,0,3.824-2.018c1.886-2.284,2.682-5.073,2.975-10.623.345-6.135,1.2-9,3.267-11.075,2.55-2.549,6.321-2.815,12.376-.85a14.442,14.442,0,0,0,3.957.876c.93-.08,1.009-.133,1.3-1.408a4.366,4.366,0,0,1,2.6-3.32c1.833-1.009,2.311-1.992,2.1-4.3-.133-1.275-.08-1.912.159-2.2C66.514-875.808,68.055-875.754,69.383-875.09Z" transform="translate(0 -29.428)" fill="rgba(0,0,0,0.5)"/>
    <path id="Tracé_12" data-name="Tracé 12" d="M845.7-1049.483c-1.248.558-1.594,1.354-1.912,4.143-1.248,11-1.965,34.075-3.745,120.178-.159,7.144-.4,18.8-.531,25.895-.558,26.745-.823,38.855-1.461,64.006-.983,39.015-1.036,43.264-.69,46.956.345,3.771.743,4.966,1.806,5.391.956.372,8.392.159,13.7-.425,4.01-.425,5.391-.744,5.126-1.169a17.088,17.088,0,0,0-2.815-1.354c-4.382-1.859-6.082-3.931-7.118-8.685-.372-1.753-.451-3.612-.425-12.376,0-6.215.106-10.384.266-10.544s2.39,1.779,6.215,5.391c12.881,12.137,15.7,14.129,23.77,16.732,22.814,7.357,36.359,4.435,54.392-11.633a78.88,78.88,0,0,0,11.394-13.678c1.275-2.045.425-3.134-1.461-1.912a6.666,6.666,0,0,0-2.045,2.523,19.929,19.929,0,0,1-2.762,4.94,59.764,59.764,0,0,1-9.109,8.579c-6.719,5.019-13.625,8.446-19.308,9.614-4.063.85-13.757.4-20.477-.93-3.8-.744-4.993-1.2-6.427-2.39a15.727,15.727,0,0,0-2.736-1.726c-.8-.4-2.337-1.115-3.4-1.62-4.94-2.364-13.837-11.261-19.2-19.255-3.453-5.1-5.418-10.544-6.905-18.936a43.922,43.922,0,0,1-.637-8.9c0-5.046.053-5.577.637-7.383a6.076,6.076,0,0,1,2.975-3.931c.425-.213.876-.345,1.009-.266a7.816,7.816,0,0,1,.4,2.2c.186,2.47.611,3.081,1.434,2.178.956-1.009,2.2-4.409,3.4-9.269a50.944,50.944,0,0,1,4.143-12.084c5.02-10.039,13.359-17.821,22.947-21.406a33.465,33.465,0,0,1,10.544-2.1,22.405,22.405,0,0,0,6.4-.93c3.134-1.328.744-2.788-4.515-2.788-1.275,0-2.231-.106-2.231-.266,0-.929,5.6-2.5,10.517-2.922a37.778,37.778,0,0,0,3.825-.451c.478-.186-.292-.531-3.373-1.567a8.963,8.963,0,0,1-2.2-.93,17.043,17.043,0,0,1,3.134-.345c4.648-.292,6.241-.85,5.63-2.019-.584-1.062-1.248-1.195-6.507-1.195-4.966,0-5.1-.027-7.357-.823-4.7-1.673-9.641-4.913-15.4-10.119a49.912,49.912,0,0,1-11.633-14.82c-2.31-4.648-3-7.2-3.028-11.155,0-3.851.451-5.285,2.5-7.675a9.607,9.607,0,0,0,2.55-4.542c.425-2.39,3.346-7.144,6.188-10.039,2.815-2.895,5.5-4.223,10.119-4.967,2.523-.4,4.728-1.009,4.94-1.381.106-.159-.186-.558-.664-.93-.983-.77-1.062-1.514-.16-2.1.531-.345,1.036-.4,2.762-.239,2.2.186,3.506-.159,3.851-1.062.239-.664,2.31-1.461,4.2-1.62,2.789-.239,4.94-.876,5.79-1.753a2.547,2.547,0,0,0,.8-1.169c0-.478-.106-.478-1.142.053-.664.372-1.328.425-3.506.292a18.369,18.369,0,0,1-15.51-9.349c-1.487-2.6-2.364-6.321-1.886-8.127.77-2.868,5.923-8.153,9.375-9.614.691-.292,1.248-.69,1.248-.876,0-.584-1.354-1.646-3.346-2.629-2.656-1.3-4.09-1.275-6.64.106a18.357,18.357,0,0,0-6.507,6.8,6.135,6.135,0,0,0-.85,3.559c.026,3.267,1.434,7.038,4.063,10.942a39.685,39.685,0,0,0,9.3,8.817c1.673,1.142,2.789,2.045,2.523,2.045-.292,0-3.134-.186-6.374-.425-7.649-.584-9.588-.372-13.014,1.328-6.188,3.081-12.323,9.083-15.032,14.66a20.885,20.885,0,0,0-2.284,9.827,31.9,31.9,0,0,0,1.381,11.128c1.912,6.533,5.9,15.085,8.817,18.857A91.83,91.83,0,0,0,884.746-922c5.6,4.356,8.366,5.843,13.12,7.091,2.6.664,3.267,1.062,2.789,1.647-.5.611-3.267.956-9.747,1.248-6.135.266-8.871.637-12.615,1.726-5.126,1.461-9.269,3.638-14.74,7.729-4.063,3.028-7.144,4.966-7.755,4.834-.77-.133-1.115-1.275-1.408-4.728a42.373,42.373,0,0,1,0-7.357c.372-4.94.8-6.826,1.886-7.915a3.137,3.137,0,0,0,.77-1.115,4.528,4.528,0,0,0-1.328-1.434c-1.514-1.275-1.673-1.965-.691-2.868a4.163,4.163,0,0,0,.93-1.7c.85-3.24,1.62-10.756,2.417-24.221,1.647-27.382,5.046-51.231,7.729-54.206.691-.744,2.337-5.205,3.957-10.73,3.134-10.73,5.206-15.245,7.7-16.891,1.567-1.036,2.656-.93,6.029.637,1.567.744,4.435,2.018,6.321,2.842,12.8,5.55,26.532,12.19,30.091,14.554,2.55,1.726,3.851,3.24,4.674,5.577.372,1.063,1.407,5.02,2.31,8.818a109.8,109.8,0,0,0,4.064,14.182c3.718,10.3,6.374,32.906,8.525,72.266,1.3,24.168,1.886,28.073,5.232,35.695a37.111,37.111,0,0,1,2.815,10.092c.4,2.842.452,5.391.4,22.07-.08,29.958-.637,38.43-2.9,43.078-.823,1.726-1.939,2.709-4.7,4.143l-2.178,1.115,1.2.08a27.76,27.76,0,0,0,4.223-.345c7.118-1.036,9.189-2.523,10.252-7.436.584-2.629.823-13.97.425-19.228-.4-4.993-.611-6.268-1.461-8.074a13.285,13.285,0,0,1-.93-3.107,140.514,140.514,0,0,1-.823-16.865c0-26.957-2.55-109.262-4.382-141.69-.452-7.782-.531-8.605-1.089-10.385-.876-2.788-4.276-4.834-19.414-11.686-19.388-8.765-38.855-17.741-56.49-26C851.043-1049.4,848.015-1050.519,845.7-1049.483Z" transform="translate(-614.394 -29.446)" fill="rgba(0,0,0,0.5)"/>
    <path id="Tracé_13" data-name="Tracé 13" d="M1009.076-782.47a29.9,29.9,0,0,0-3.187,1.354,6.56,6.56,0,0,1-3.293.93c-1.434.027-1.62.08-2.337.93a47.754,47.754,0,0,0-4.063,8.1,23.714,23.714,0,0,0-1.2,5.976,39.063,39.063,0,0,0,.664,4.754,38.434,38.434,0,0,1,.664,5.524c0,3.32.85,4.595,8.366,12.748,6.4,6.932,9.349,9.375,11.261,9.375a5,5,0,0,1,3.532,1.647c1.832,2.576,7.489,2.364,13.173-.478,2.868-1.434,5.71-3.9,6.64-5.79,2.576-5.152,2.39-20.423-.319-26.346-2.842-6.188-11.606-14.076-19.361-17.422C1015.4-783,1012-783.426,1009.076-782.47Zm-1.487,14.9a13.986,13.986,0,0,1,2.5,1.912,14.547,14.547,0,0,0,6.64,3.745c3.214.744,5.152,2.629,9.162,8.9,1.833,2.895,3.718,5.046,4.515,5.152,1.222.159,1.54,2.231.956,6.188a6.908,6.908,0,0,1-.823,2.656c-.929,1.169-3,1.593-7.781,1.567-6.666-.026-9.216-.876-12.483-4.2-5.259-5.312-9.269-14.475-8.844-20.238C1001.719-765.977,1004.667-768.686,1007.589-767.57Z" transform="translate(-730.305 -225.414)" fill="rgba(0,0,0,0.5)"/>
    <path id="Tracé_14" data-name="Tracé 14" d="M966.079-481.3c-4.462.584-7.676,1.859-12.27,4.834a48.434,48.434,0,0,1-4.462,2.5,5.722,5.722,0,0,0-3.293,2.815A143.048,143.048,0,0,0,938.67-456.6c-3.054,7.144-3.426,9.8-2.948,21.353.186,4.435.345,7.968.4,7.835.027-.133.186-3.532.345-7.543.292-7.782.558-10.438,1.2-12.7.717-2.417,1.168-1.753,1.992,2.948.292,1.647.77,5.657,1.062,8.95.876,9.508,1.647,12.722,4.143,17.529a70.556,70.556,0,0,0,7.118,10.252c7.33,8.207,25.151,11.5,38.484,7.118a9.1,9.1,0,0,1,2.2-.584,15.286,15.286,0,0,1-3.479,2.417A27.788,27.788,0,0,1,982.917-397c-1.833.292-2.629.85-2.629,1.806,0,.9,1.514,1.487,3.745,1.487,2.045-.027,2.709-.319,3.878-1.673.85-.983,2.523-2.125,6.082-4.2,2.39-1.381,3.824-2.921,3.824-4.117,0-1.3.345-1.673,1.2-1.3,1.089.5,1.646.372,2.762-.611a3.352,3.352,0,0,1,1.673-.93,5.56,5.56,0,0,1,2.178,1.089,5.165,5.165,0,0,0,1.647.956,2.3,2.3,0,0,0-.133-1.169c-.664-2.311-.239-5.471,1.3-9.827,2.39-6.746,3.373-15.484,2.895-25.576-.345-7.437-1.3-12.19-3.426-17.263a47.48,47.48,0,0,1-1.859-5.444c-.531-2.125-.558-2.55-.292-3.957a4.662,4.662,0,0,0,.186-1.673c-.053-.08-.558,0-1.063.186a2.579,2.579,0,0,1-1.939-.027,21.833,21.833,0,0,1-6.055-3.32c-7.543-5.445-11-7.2-16.865-8.472A58.659,58.659,0,0,0,966.079-481.3Zm-3.585,22.442a12.275,12.275,0,0,1-1.461,2.231,12.284,12.284,0,0,0-1.461,2.231c0,.213.345.186,1.089-.08,2.709-.956,4.966-.159,6.082,2.125.611,1.248.611,1.886.106,4.966-.159.929-.106,1.009.452,1.009a31.836,31.836,0,0,0,3.931-1.089,18.379,18.379,0,0,1,5.869-1.222c2.895-.159,4.117.106,5.923,1.248,2.6,1.647,3.771,4.648,4.143,10.6s1.062,7.383,5.657,11.872c1.647,1.647,3.4,3.32,3.878,3.718l.876.77-2.682,3.32c-4.648,5.737-8.393,9.216-9.508,8.844-.717-.266-1.726.266-3.267,1.673-1.965,1.806-3.373,2.47-5.179,2.5-1.912,0-2.895-.372-9.906-3.692-6.56-3.107-8.1-4.117-10.464-6.905A33.766,33.766,0,0,1,951.6-422.6c-2.868-5.9-4.515-12.27-4.515-17.476,0-4.409,1.036-7.065,3.32-8.685,2.1-1.461,3.267-2.815,3.586-4.037.77-2.922,1.886-4.037,5.471-5.391C962.015-459.176,962.493-459.282,962.493-458.857Z" transform="translate(-686.644 -446.75)" fill="rgba(0,0,0,0.5)"/>
  </g>
</svg>
